<svg xmlns="http://www.w3.org/2000/svg" xmlns:svg="http://www.w3.org/2000/svg" id="svg2" width="512" height="512" x="0" y="0" enable-background="new 0 0 512 512" version="1.1" viewBox="0 0 512 512" xml:space="preserve"><metadata id="metadata69"/><defs id="defs4"><style id="style6"/><linearGradient id="_0_" x1="0" x2="0" y1="0" y2="308.111" gradientUnits="userSpaceOnUse"><stop id="stop9" offset="0" stop-color="#B8C6DF"/><stop id="stop11" offset="1" stop-color="#6D88B7"/></linearGradient><linearGradient id="_1_" x1="0" x2="0" y1="0" y2="308.111" gradientUnits="userSpaceOnUse"><stop id="stop14" offset="0" stop-color="#B4E391"/><stop id="stop16" offset=".56" stop-color="#61C419"/><stop id="stop18" offset="1" stop-color="#B4E391"/></linearGradient><linearGradient id="_2_" x1="0" x2="0" y1="0" y2="308.111" gradientUnits="userSpaceOnUse"><stop id="stop21" offset="0" stop-color="#B4E391"/><stop id="stop23" offset=".56" stop-color="#61C419"/><stop id="stop25" offset="1" stop-color="#B4E391"/></linearGradient><linearGradient id="_3_" x1="0" x2="0" y1="0" y2="177.991" gradientUnits="userSpaceOnUse"><stop id="stop28" offset="0" stop-color="#C9DE96"/><stop id="stop30" offset=".44" stop-color="#8AB66B"/><stop id="stop32" offset="1" stop-color="#398235"/></linearGradient></defs><g id="Layer 01" name="Layer 01" transform="translate(-4.556172,46.653226)" type="LAYER"><path id="path36" width="423.155" height="308.111" fill="url(#_0_)" stroke="none" stroke-miterlimit="3" d="m 423.15462,0 0,308.11123 L 0,308.11123 0,0 423.15462,0 z" transform="translate(55.813126,71.190211)"/><path id="path38" width="449.327" height="201.611" fill="url(#_1_)" stroke="none" stroke-miterlimit="3" d="m 51.826474,424.29366 0.04761,-102.25069 59.182656,-97.65142 70.05117,67.77308 63.78642,-46.70078 48.97886,49.54839 73.4683,-72.32926 49.52326,62.26834 44.99222,-26.76751 39.297,53.53503 -7.37865,101.18439" transform="translate(-5.7428221,-44.116388)"/><path id="path40" fill="url(#_2_)" stroke="#000" stroke-miterlimit="3" d="M 493.77531,412.90323" transform="translate(-5.7428221,-44.116388)"/><path id="path42" width="449.327" height="116.467" fill="url(#_3_)" stroke="none" stroke-miterlimit="3" d="m -51.826474,245.1075 -0.04761,-59.06855 -59.182656,-56.41163 -70.05117,39.1514 -63.78642,-26.97828 -48.97886,28.6233 -73.4683,-41.78343 -49.52326,35.9714 -44.99222,-15.46316 -39.297,30.92632 7.37865,58.45256" transform="translate(555.27108,130.49206)"/><path id="path44" width="50.687" height="374.745" fill="#fff" stroke="none" stroke-miterlimit="3" d="m 0,0 -50.68743,0 0,374.74527 50.68743,0 L 0,0 z" transform="translate(62.077864,26.197998)"/><path id="path46" width="34.171" height="374.745" fill="#fff" stroke="none" stroke-miterlimit="3" d="m 0,0 -34.171301,0 0,374.74527 L 0,374.74527 0,0 z" transform="translate(509.72191,36.449388)"/><path id="path48" width="465.299" height="41.575" fill="#fff" stroke="none" stroke-miterlimit="3" d="m 0,0 465.29922,0 0,-41.575083 L 0,-41.575083 0,0 z" transform="translate(28.476085,75.746385)"/><path id="path50" width="449.353" height="45.562" fill="#fff" stroke="none" stroke-miterlimit="3" d="m 0,0 449.35261,0 0,45.561735 L 0,45.561735 0,0 z" transform="translate(39.296997,363.35484)"/></g><g id="crop" name="crop" transform="translate(-4.556172,46.653226)" type="LAYER"><path id="path53" width="412.903" height="288.178" fill="none" stroke="#000" stroke-miterlimit="3" stroke-width="5" d="m 0,0 412.90323,0 0,288.17798 L 0,288.17798 0,0 z" transform="translate(62.077864,75.176863)"/><g id="g55" transform="translate(89.925473,15.946607)"><path id="path57" width="25" height="328.614" fill="#000" stroke="#000" stroke-miterlimit="3" stroke-width="1.01" d="m 0,0 25,0 0,328.61402 -25,0 L 0,0 z" transform="translate(0.05895439,0)"/><path id="path59" width="404.93" height="25" fill="#000" stroke="#000" stroke-miterlimit="3" stroke-width=".937" d="m 0,0 404.92992,0 0,-25 L 0,-25 0,0 z" transform="translate(0,329.12458)"/></g><g id="g61" transform="matrix(-1,0,0,-1,439.67075,450.74694)"><path id="path63" width="25" height="328.614" fill="#000" stroke="#000" stroke-miterlimit="3" stroke-width="1.01" d="m 25,0 0,328.61402 -25,0 L 0,0 25,0 z" transform="translate(0.05895439,0)"/><path id="path65" width="404.93" height="25" fill="#000" stroke="#000" stroke-miterlimit="3" stroke-width=".937" d="m 404.92992,0 0,-25 L 0,-25 0,0 404.92992,0 z" transform="translate(0,329.12458)"/></g></g></svg>